<?xml version="1.0" standalone="no"?>
<!DOCTYPE svg PUBLIC "-//W3C//DTD SVG 20010904//EN"
 "http://www.w3.org/TR/2001/REC-SVG-20010904/DTD/svg10.dtd">
<svg version="1.0" xmlns="http://www.w3.org/2000/svg"
 width="700.000000pt" height="700.000000pt" viewBox="0 0 700.000000 700.000000"
 preserveAspectRatio="xMidYMid meet">
<metadata>
Created by potrace 1.11, written by Peter Selinger 2001-2013
</metadata>
<g transform="translate(0.000000,700.000000) scale(0.100000,-0.100000)"
fill="#000000" stroke="none">
<path d="M3270 6914 c-19 -2 -84 -9 -145 -15 -555 -55 -1118 -264 -1583 -586
-745 -517 -1265 -1325 -1421 -2208 -41 -230 -46 -296 -46 -605 0 -363 20 -534
95 -835 289 -1147 1152 -2063 2285 -2425 345 -110 648 -155 1035 -155 281 1
426 15 681 66 1144 229 2108 1053 2518 2151 216 580 272 1231 156 1838 -168
885 -685 1674 -1432 2183 -450 308 -940 494 -1493 568 -137 19 -559 34 -650
23z m586 -319 c579 -68 1123 -298 1594 -673 129 -104 357 -333 464 -467 354
-445 568 -938 659 -1515 18 -116 21 -178 21 -440 0 -262 -3 -324 -21 -440 -91
-577 -305 -1070 -659 -1515 -107 -134 -335 -363 -464 -467 -472 -376 -1004
-601 -1601 -674 -181 -23 -547 -23 -728 0 -170 21 -343 56 -498 100 -1099 316
-1947 1224 -2183 2336 -56 261 -64 351 -64 660 0 309 8 399 64 660 169 796
661 1509 1350 1955 613 397 1335 565 2066 480z"/>
<path d="M3265 6284 c-16 -2 -73 -9 -125 -15 -365 -41 -776 -188 -1106 -394
-315 -198 -631 -510 -837 -825 -218 -335 -359 -717 -419 -1135 -8 -57 -13
-190 -13 -365 1 -237 4 -293 23 -405 22 -131 78 -368 92 -394 9 -18 62 48 175
219 105 158 385 610 385 622 0 4 -57 8 -127 8 -71 1 -147 5 -171 9 -46 9 -89
42 -103 79 -12 32 6 98 35 127 39 39 200 77 455 110 69 8 125 16 127 18 1 1
78 128 171 282 389 642 537 849 778 1090 209 209 452 369 632 415 221 57 431
27 554 -79 79 -68 94 -106 94 -236 -1 -104 -4 -118 -49 -255 -27 -80 -78 -221
-113 -315 -36 -93 -120 -316 -188 -495 -67 -179 -152 -401 -188 -495 -36 -93
-67 -176 -69 -184 -4 -18 51 -29 190 -39 l103 -7 -57 -70 c-122 -151 -226
-235 -344 -281 -25 -9 -50 -22 -56 -28 -18 -18 -151 -428 -185 -571 -24 -104
-31 -161 -36 -285 -7 -194 2 -242 67 -349 39 -64 46 -81 32 -81 -9 0 -147 -16
-307 -35 -159 -19 -290 -33 -290 -32 -1 1 -12 37 -24 81 -19 63 -23 101 -22
197 2 292 48 487 227 963 52 138 95 256 96 264 4 19 -118 67 -246 97 -101 24
-252 48 -378 61 l-66 7 -53 -109 c-160 -334 -306 -622 -365 -722 -70 -116
-158 -218 -216 -248 -46 -24 -157 -43 -260 -43 -49 -1 -88 -4 -88 -8 0 -14
121 -236 178 -327 439 -698 1181 -1162 2012 -1257 134 -15 465 -15 595 0 763
90 1433 475 1888 1084 283 379 463 829 522 1302 20 154 22 462 6 615 -54 496
-236 954 -539 1359 -99 134 -365 405 -492 503 -426 327 -897 515 -1429 568
-95 9 -406 12 -476 4z m2043 -1800 c221 -44 351 -139 431 -315 42 -92 55 -172
48 -292 -16 -281 -180 -598 -373 -719 -85 -54 -198 -72 -288 -47 -49 14 -115
80 -150 150 -27 57 -63 217 -53 242 3 8 27 18 54 22 71 10 105 28 153 76 60
63 116 148 167 256 93 195 63 287 -93 286 -252 -2 -639 -316 -946 -768 -183
-269 -299 -503 -409 -825 l-54 -155 0 -145 c0 -138 1 -148 28 -205 52 -111
114 -154 235 -162 181 -13 363 69 588 262 44 37 51 40 110 40 55 0 67 -3 90
-27 35 -35 54 -109 41 -162 -23 -96 -320 -339 -522 -429 -91 -41 -233 -77
-302 -77 -80 0 -243 31 -312 59 -212 86 -372 295 -428 561 -21 101 -24 324 -5
440 49 301 207 668 421 980 285 416 565 683 880 840 98 49 260 106 341 120 80
14 267 11 348 -6z"/>
<path d="M3350 5391 c-130 -42 -233 -112 -375 -255 -134 -135 -294 -365 -520
-746 -85 -144 -255 -450 -255 -460 0 -5 39 -13 88 -20 113 -15 266 -50 420
-94 68 -20 125 -36 127 -36 2 0 18 35 35 78 51 121 377 883 518 1212 70 161
110 295 98 325 -7 20 -66 19 -136 -4z"/>
</g>
</svg>
