<?xml version="1.0" encoding="utf-8"?>
<!-- Generator: Adobe Illustrator 24.3.0, SVG Export Plug-In . SVG Version: 6.00 Build 0)  -->
<svg version="1.1" id="svg3003" xmlns="http://www.w3.org/2000/svg" xmlns:xlink="http://www.w3.org/1999/xlink" x="0px" y="0px"
	 viewBox="0 0 54.1 53.9" style="enable-background:new 0 0 54.1 53.9;" xml:space="preserve">
<style type="text/css">
	.st0{fill:#FFFFFF;}
</style>
<g>
	<g>
		<path class="st0" d="M54.1,32.9c-4.8,0-9.7,0-14.5,0c-0.9,0-2,0-2.9,0c-0.1,3.5,2.1,5.6,4.9,6c1.2,0.1,2.4,0.1,3.6-0.4
			c0.8-0.4,1.6-1,2-1.8c0.1-0.2,0.3-0.4,0.5-0.4c2,0,4.1,0,6.3,0c-0.3,0.8-0.6,1.7-1,2.4c-1.4,2.3-3.3,4-6,4.8
			c-3.7,1.2-7.2,0.9-10.7-0.7c-3.1-1.6-5.1-4-5.8-7.4c-0.5-3.1-0.6-6.4,0.5-9.4c1.6-4.2,4.7-6.5,9.1-7.1c2.4-0.3,4.8-0.2,7,0.7
			c3.9,1.6,5.9,4.6,6.6,8.6c0.1,0.6,0.2,1.3,0.2,1.9C54.1,30.8,54.1,31.8,54.1,32.9z M47.5,28.7c0-3-2.4-5.2-5.5-5.1
			c-2.9,0.1-5.3,2.4-5.1,5.1C40.3,28.7,43.8,28.7,47.5,28.7z"/>
		<path class="st0" d="M-0.1,44.2c0-11.3,0-22.5,0-33.7c0.2,0,0.5,0,0.7,0c5,0,10.1,0,15.2,0c2.2,0,4.3,0.2,6.3,1.3
			c3.1,1.6,4.6,4.7,4.4,8.3c-0.2,2.6-1.4,4.7-3.8,6c-0.1,0-0.1,0.1-0.1,0.1s0,0.1-0.1,0.1c1.3,0.5,2.4,1.3,3.2,2.3
			c1.7,2.1,2.1,4.5,1.7,7c-0.7,4.8-4,8-8.9,8.5c-1.4,0.1-2.7,0.2-4,0.2c-4.6,0-9.2,0-13.8,0C0.5,44.2,0.2,44.2-0.1,44.2z M7.7,38.3
			c0.3,0,0.5,0,0.7,0c2.5,0,5,0.1,7.5-0.1c2.7-0.1,4.1-1.5,4.4-4c0.3-2.2-0.6-3.9-2.6-4.5c-0.8-0.2-1.8-0.3-2.6-0.4
			c-2.3,0-4.6,0-6.9,0c-0.2,0-0.4,0-0.6,0C7.7,32.4,7.7,35.3,7.7,38.3z M7.7,23.7c2.6,0,5.1,0,7.6,0c0.7,0,1.5-0.2,2.1-0.4
			c2.2-0.7,3-4,1.5-5.6c-0.3-0.4-0.8-0.7-1.4-0.8c-1-0.2-2.1-0.4-3.2-0.4c-2.1-0.1-4.1,0-6.2,0c-0.2,0-0.3,0-0.5,0
			C7.7,18.9,7.7,21.3,7.7,23.7z"/>
		<path class="st0" d="M48.8,11.9c0,1.2,0,2.2,0,3.3c-4.5,0-9,0-13.5,0c0-1.2,0-2.2,0-3.3C39.8,11.9,44.3,11.9,48.8,11.9z"/>
	</g>
</g>
</svg>
