<?xml version="1.0" encoding="utf-8"?>
<!-- Generator: Adobe Illustrator 24.3.0, SVG Export Plug-In . SVG Version: 6.00 Build 0)  -->
<svg version="1.1" id="svg3003" xmlns="http://www.w3.org/2000/svg" xmlns:xlink="http://www.w3.org/1999/xlink" x="0px" y="0px"
	 viewBox="0 0 44.8 48.4" style="enable-background:new 0 0 44.8 48.4;" xml:space="preserve">
<style type="text/css">
	.st0{fill:#FFFFFF;}
</style>
<g>
	<path class="st0" d="M12.5,10.1c0,2.4-1.8,4.3-4.7,4.3H7.7c-2.8,0-4.6-1.9-4.6-4.3c0-2.4,1.9-4.3,4.7-4.3
		C10.7,5.9,12.4,7.8,12.5,10.1z M3.6,42.5h8.3V17.8H3.6V42.5z M32.2,17.2c-4.4,0-6.3,2.4-7.5,4.1v0.1h-0.1l0.1-0.1v-3.5h-8.2
		c0.1,2.3,0,24.7,0,24.7h8.3V28.7c0-0.7,0.1-1.5,0.3-2c0.6-1.5,1.9-3,4.3-3c3,0,4.2,2.3,4.2,5.6v13.2h8.3V28.3
		C41.7,20.7,37.6,17.2,32.2,17.2z"/>
</g>
</svg>
