<?xml version="1.0" encoding="utf-8"?>
<!-- Generator: Adobe Illustrator 24.3.0, SVG Export Plug-In . SVG Version: 6.00 Build 0)  -->
<svg version="1.1" id="svg3003" xmlns="http://www.w3.org/2000/svg" xmlns:xlink="http://www.w3.org/1999/xlink" x="0px" y="0px"
	 viewBox="0 0 51.7 51.5" style="enable-background:new 0 0 51.7 51.5;" xml:space="preserve">
<style type="text/css">
	.st0{fill:#FFFFFF;}
</style>
<g>
	<path class="st0" d="M15.9,11.7c0,2.4-1.8,4.3-4.7,4.3h-0.1c-2.8,0-4.6-1.9-4.6-4.3c0-2.4,1.9-4.3,4.7-4.3
		C14.1,7.5,15.8,9.3,15.9,11.7z M7,44h8.3V19.3H7V44z M35.6,18.7c-4.4,0-6.3,2.4-7.5,4.1V23h-0.1l0.1-0.1v-3.5h-8.2
		c0.1,2.3,0,24.7,0,24.7h8.3V30.2c0-0.7,0.1-1.5,0.3-2c0.6-1.5,1.9-3,4.3-3c3,0,4.2,2.3,4.2,5.6V44h8.3V29.9
		C45.2,22.3,41.1,18.7,35.6,18.7z"/>
</g>
</svg>
