<?xml version="1.0" encoding="utf-8"?>
<!-- Generator: Adobe Illustrator 24.3.0, SVG Export Plug-In . SVG Version: 6.00 Build 0)  -->
<svg version="1.1" id="svg3003" xmlns="http://www.w3.org/2000/svg" xmlns:xlink="http://www.w3.org/1999/xlink" x="0px" y="0px"
	 viewBox="0 0 51.7 51.5" style="enable-background:new 0 0 51.7 51.5;" xml:space="preserve">
<style type="text/css">
	.st0{fill:#FFFFFF;}
</style>
<g>
	<path class="st0" d="M15,10.6c0,2.6-2,4.7-5.1,4.7H9.7c-3,0-5-2.1-5-4.7c0-2.6,2-4.7,5.1-4.7C13,6,14.9,8,15,10.6z M5.2,45.5h9.1
		V18.8H5.2V45.5z M36.5,18.2c-4.8,0-6.9,2.6-8.2,4.4v0.2h-0.1l0.1-0.1v-3.8h-9c0.1,2.5,0,26.7,0,26.7h9.1v-15c0-0.8,0.1-1.6,0.3-2.2
		c0.7-1.6,2.1-3.3,4.7-3.3c3.3,0,4.6,2.5,4.6,6v14.3h9.1V30.2C47,22,42.5,18.2,36.5,18.2z"/>
</g>
</svg>
