<?xml version="1.0" encoding="utf-8"?>
<!-- Generator: Adobe Illustrator 24.3.0, SVG Export Plug-In . SVG Version: 6.00 Build 0)  -->
<svg version="1.1" id="svg3003" xmlns="http://www.w3.org/2000/svg" xmlns:xlink="http://www.w3.org/1999/xlink" x="0px" y="0px"
	 viewBox="0 0 40.8 45.5" style="enable-background:new 0 0 40.8 45.5;" xml:space="preserve">
<style type="text/css">
	.st0{fill:#FFFFFF;}
</style>
<g>
	<path class="st0" d="M10.4,8.7c0,2.4-1.8,4.3-4.7,4.3H5.7c-2.8,0-4.6-1.9-4.6-4.3c0-2.4,1.9-4.3,4.7-4.3C8.6,4.5,10.4,6.4,10.4,8.7
		z M1.6,41.1h8.3V16.4H1.6V41.1z M30.2,15.8c-4.4,0-6.3,2.4-7.5,4.1V20h-0.1l0.1-0.1v-3.5h-8.2c0.1,2.3,0,24.7,0,24.7h8.3V27.3
		c0-0.7,0.1-1.5,0.3-2c0.6-1.5,1.9-3,4.3-3c3,0,4.2,2.3,4.2,5.6V41h8.3V26.9C39.7,19.3,35.6,15.8,30.2,15.8z"/>
</g>
</svg>
