<?xml version="1.0" encoding="utf-8"?>
<!-- Generator: Adobe Illustrator 24.3.0, SVG Export Plug-In . SVG Version: 6.00 Build 0)  -->
<svg version="1.1" id="svg3003" xmlns="http://www.w3.org/2000/svg" xmlns:xlink="http://www.w3.org/1999/xlink" x="0px" y="0px"
	 viewBox="0 0 51.7 51.5" style="enable-background:new 0 0 51.7 51.5;" xml:space="preserve">
<style type="text/css">
	.st0{fill:#FFFFFF;}
</style>
<g>
	<path class="st0" d="M12.5,6.8c0,3.2-2.4,5.8-6.3,5.8H6.1C2.4,12.6,0,10,0,6.8c0-3.3,2.5-5.8,6.3-5.8C10.1,1.1,12.4,3.6,12.5,6.8z
		 M0.6,50.4h11.1V17.1H0.6V50.4z M38.9,16.3c-5.9,0-8.5,3.2-10,5.5V22h-0.1c0,0,0.1-0.1,0.1-0.1v-4.7H17.9c0.1,3.1,0,33.3,0,33.3
		h11.1V31.8c0-1,0.1-2,0.4-2.7c0.8-2,2.6-4.1,5.7-4.1c4,0,5.6,3.1,5.6,7.5v17.8h11.1V31.3C51.7,21.1,46.2,16.3,38.9,16.3z"/>
</g>
</svg>
