<svg id="Layer_1" data-name="Layer 1" xmlns="http://www.w3.org/2000/svg" width="6.9in" height="2.7in" viewBox="0 0 498 191.4"><title>Artboard 16</title><path d="M408.3,7.9,453,10c13,.5,26,.7,39,1.5,1.5.1,3.1,2.4,4.3,4s-1.7,2.2-2.8,3.2-3,1.9-4.1,3.2c-8,9.4-15.9,18.9-23.6,28.4-6.3,7.9-12.4,15.9-18.6,23.9-.7.8-2.1,1.9-2.7,1.7a5.3,5.3,0,0,1-2.6-2.7,77.1,77.1,0,0,1-3-8c-.9-2.5-2.7-3.4-5.2-3.3l-11.5.5c-3.3.1-4.7-2.1-4.3-5.4,1-7.3,2.6-14.8,2-22-.4-4.8-3.9-9.4-6.4-13.9s-4.8-7.3-7.2-11a2.9,2.9,0,0,1-.2-2.2c.4-.6,1.4-.7,2.1-1Zm25.8,35.5c3.8,8.7,7.4,16.9,10.8,24.9l36.4-43.4-.4-1Zm38.6-27.1v-.4L413,12.6c2.6,4.6,5,8.9,7.7,13.1a3.6,3.6,0,0,0,3,1.4c5.8-1.4,11.4-3.2,17.1-4.6s12.5-2.6,18.7-3.8C463.9,17.8,468.3,17.1,472.7,16.3Zm4,4.4c-17.9,2.7-35.7,5-52.7,11.1V47.3c3-4.2,4.3-9.5,10.6-8.7l.3-.2c8.7-3.7,17.3-7.5,26-11.1C466.1,25,471.4,22.9,476.7,20.7ZM424,57.9l11.5-.6-5.1-12.2C428,50,426,53.9,424,57.9Z" fill="#48c1d6"/><path d="M405.5,60.7c3,2.5,3,3.5.3,5s-6.4,3.4-9.5,5.3-3.5,1.5-4.4-.6c-.2-.5,1.4-2.1,2.4-2.8C397.9,65.2,401.7,63,405.5,60.7Z" fill="#48c1d6"/><path d="M272.3,105.3c1.8-1.2,3.5-2.7,5.4-3.5a73.1,73.1,0,0,1,10.1-4c.7-.2,1.9.7,2.8,1.1-.6.8-1.1,2-1.9,2.3-4.1,1.9-8.2,3.7-12.3,5.3-1.1.4-2.4.1-3.7.1Z" fill="#48c1d6"/><path d="M339.4,88.8c.4.3,1.5.7,1.5,1.2s-.5,2.5-1.1,2.7c-4.2,1.3-8.5,2.6-12.8,3.5-.9.1-2.2-1.7-3.3-2.6a29.6,29.6,0,0,1,3.1-1.5l8.1-2.3Z" fill="#48c1d6"/><path d="M384,71.6c.4.5,1.5,1.1,1.5,1.7a3.3,3.3,0,0,1-1.1,2.8,94.4,94.4,0,0,1-10.3,4.5c-1,.3-2.4-.5-3.6-.8.6-.9,1-2.3,1.9-2.8,3.2-1.8,6.5-3.3,9.7-4.9Z" fill="#48c1d6"/><path d="M348.4,86.4c4.1-2,8.2-4,12.4-5.7a2.7,2.7,0,0,1,2.6,1.2,3.1,3.1,0,0,1-1.1,2.7A64.3,64.3,0,0,1,352.2,89c-1.1.4-2.7-.7-4-1.2A6.8,6.8,0,0,1,348.4,86.4Z" fill="#48c1d6"/><path d="M229.5,142c3.8-3.8,7.5-7.6,11.4-11.3a2.9,2.9,0,0,1,2.5.4,3,3,0,0,1-.3,2.4,82.4,82.4,0,0,1-7.6,8c-1.2,1.1-3.1,1.5-4.7,2.2Z" fill="#48c1d6"/><path d="M154,182.3c3.5-2.6,16.4-2.1,18.4.5C170.1,185.3,156.7,185.1,154,182.3Z" fill="#48c1d6"/><path d="M223.1,153.9a12.8,12.8,0,0,1-1.6,2.1c-2.9,2.2-5.9,4.4-8.9,6.3-.9.6-2.3.4-3.4.5s.3-2.3,1-3c2.8-2.5,5.8-4.9,8.8-7.2a3.2,3.2,0,0,1,2.5-.5C222.2,152.3,222.6,153.3,223.1,153.9Z" fill="#48c1d6"/><path d="M77.1,140.5c4.7,2,9.5,3.9,14.1,6.1.9.4,1.3,1.9,1.9,2.9-1.2.1-2.6.5-3.7.1-3.8-1.5-7.5-3.2-11.2-5.1-1-.5-1.5-2.1-2.3-3.2Z" fill="#48c1d6"/><path d="M187,175.3c3.8-1.8,7.5-3.8,11.4-5.4.8-.3,2.1.8,3.2,1.2s-.6,2.1-1.3,2.4a92.6,92.6,0,0,1-10.3,4.2c-.9.2-2.2-.8-3.3-1.2Z" fill="#48c1d6"/><path d="M262.2,115.6l-1.3,1.5a71.8,71.8,0,0,1-6.3,6c-.9.7-2.6.3-3.9.5.4-1.1.5-2.4,1.2-3.2a56.7,56.7,0,0,1,6.1-5.9c.6-.6,1.9-.6,2.8-.5S261.7,115,262.2,115.6Z" fill="#48c1d6"/><path d="M117.7,163.7c-1,0-2.2.3-3-.1a88.1,88.1,0,0,1-9.7-4.9c-.9-.6-1-2.3-1.4-3.6a17.7,17.7,0,0,1,3.3.8c2.8,1.4,5.6,3,8.3,4.5l2.8,1.9Z" fill="#48c1d6"/><path d="M65.5,136.9c-4-1-8-2-12-3.2-.6-.1-1.1-1.4-1.1-2.2s1.3-1.2,1.8-1.1c3.4.8,6.8,1.7,10.1,2.8.9.4,1.4,1.7,2.1,2.6Z" fill="#48c1d6"/><path d="M127.2,169.1c1.9.1,3.1-.2,4,.2,3.3,1.8,6.5,3.7,9.7,5.7.7.4.8,1.7,1.2,2.5s-2.1.6-2.8.2c-3.5-1.8-6.9-3.8-10.3-5.9C128.4,171.5,128.1,170.6,127.2,169.1Z" fill="#48c1d6"/><path d="M33.5,129.5a27.7,27.7,0,0,1,5,.1c.9.2,1.6,1.3,2.3,2a9,9,0,0,1-2.4,1.2,80.6,80.6,0,0,1-8.5.4,6.8,6.8,0,0,1-2.9-.6c-.6-.4-.8-1.3-1.2-2s1.3-1,2-1A54.2,54.2,0,0,1,33.5,129.5Z" fill="#48c1d6"/><path d="M4,129.9c3.7-2,11.5-1.6,13.3.6C15.2,133.5,6.4,133.3,4,129.9Z" fill="#48c1d6"/><path d="M299,95.9a79.4,79.4,0,0,1,8.5-1.5c1.7-.2,3.9.2,3.3,2.9l-7.3,1.9C300.9,99.9,299.9,99.3,299,95.9Z" fill="#48c1d6"/></svg>