<?xml version="1.0" encoding="utf-8"?>
<!-- Generator: Adobe Illustrator 22.0.1, SVG Export Plug-In . SVG Version: 6.00 Build 0)  -->
<!DOCTYPE svg PUBLIC "-//W3C//DTD SVG 1.1//EN" "http://www.w3.org/Graphics/SVG/1.1/DTD/svg11.dtd">
<svg version="1.1" id="svg3003" xmlns="http://www.w3.org/2000/svg" xmlns:xlink="http://www.w3.org/1999/xlink" x="0px" y="0px"
	 viewBox="0 0 51.7 51.5" style="enable-background:new 0 0 51.7 51.5;" xml:space="preserve">
<style type="text/css">
	.st0{fill:#FFFFFF;}
</style>
<title>instagram</title>
<g>
	<g>
		<path class="st0" d="M51.7,31c-4.6,0-9.3,0-13.9,0c-0.9,0-1.9,0-2.8,0c-0.1,3.3,2,5.4,4.7,5.7c1.1,0.1,2.3,0.1,3.4-0.4
			c0.8-0.4,1.5-1,1.9-1.7c0.1-0.2,0.3-0.4,0.5-0.4c1.9,0,3.9,0,6,0c-0.3,0.8-0.6,1.6-1,2.3c-1.3,2.2-3.2,3.8-5.7,4.6
			c-3.5,1.1-6.9,0.9-10.2-0.7c-3-1.5-4.9-3.8-5.5-7.1c-0.5-3-0.6-6.1,0.5-9c1.5-4,4.5-6.2,8.7-6.8c2.3-0.3,4.6-0.2,6.7,0.7
			c3.7,1.5,5.6,4.4,6.3,8.2c0.1,0.6,0.2,1.2,0.2,1.8C51.7,29,51.7,30,51.7,31z M45.4,27c0-2.9-2.3-5-5.3-4.9
			c-2.8,0.1-5.1,2.3-4.9,4.9C38.5,27,41.9,27,45.4,27z"/>
		<path class="st0" d="M-0.1,41.8c0-10.8,0-21.5,0-32.2c0.2,0,0.5,0,0.7,0c4.8,0,9.7,0,14.5,0c2.1,0,4.1,0.2,6,1.2
			c3,1.5,4.4,4.5,4.2,7.9c-0.2,2.5-1.3,4.5-3.6,5.7c-0.1,0-0.1,0.1-0.1,0.1c0,0,0,0.1-0.1,0.1c1.2,0.5,2.3,1.2,3.1,2.2
			c1.6,2,2,4.3,1.6,6.7c-0.7,4.6-3.8,7.6-8.5,8.1c-1.3,0.1-2.6,0.2-3.8,0.2c-4.4,0-8.8,0-13.2,0C0.5,41.8,0.2,41.8-0.1,41.8z
			 M7.4,36.2c0.3,0,0.5,0,0.7,0c2.4,0,4.8,0.1,7.2-0.1c2.6-0.1,3.9-1.4,4.2-3.8c0.3-2.1-0.6-3.7-2.5-4.3c-0.8-0.2-1.7-0.3-2.5-0.4
			c-2.2,0-4.4,0-6.6,0c-0.2,0-0.4,0-0.6,0C7.4,30.5,7.4,33.3,7.4,36.2z M7.4,22.2c2.5,0,4.9,0,7.3,0c0.7,0,1.4-0.2,2-0.4
			c2.1-0.7,2.9-3.8,1.4-5.4c-0.3-0.4-0.8-0.7-1.3-0.8c-1-0.2-2-0.4-3.1-0.4c-2-0.1-3.9,0-5.9,0c-0.2,0-0.3,0-0.5,0
			C7.4,17.6,7.4,19.9,7.4,22.2z"/>
		<path class="st0" d="M46.6,10.9c0,1.1,0,2.1,0,3.2c-4.3,0-8.6,0-12.9,0c0-1.1,0-2.1,0-3.2C38,10.9,42.3,10.9,46.6,10.9z"/>
	</g>
</g>
</svg>
