<svg id="Layer_1" data-name="Layer 1" xmlns="http://www.w3.org/2000/svg" width="1.4in" height="1.4in" viewBox="0 0 99.7 103.6"><title>Artboard 10</title><path d="M51.1,17.4c12,.5,21.3,3,27.7,11.1a25.3,25.3,0,0,1,5,12.6c.6,5.6.5,11.9-3.3,16.7s-9.4,10-14,15.1A15.5,15.5,0,0,0,63.4,78c-2.3,6.4-5,12.4-12.4,14.2a4,4,0,0,0-3.5,3.7c-.3,2.5-1.4,3.8-4.1,2.1-.7-.5-2-.2-2.7-.7s-3.9-2.9-3.7-3.5c1.4-3.2-.9-4-2.6-5.6-4.7-4.3-4.9-10.1-4-15.7.5-3.2-.5-5.4-1.7-8S24.5,57,23.3,53C19,38.7,25.1,26.2,38.8,20.1,43.1,18.2,48.2,18,51.1,17.4ZM38.4,69.1,44.3,44c.3-1.7.3-3.7,1.3-5a71.7,71.7,0,0,1,6.8-6.7c2.1-2,3.7-1.8,5,.8s3.3,6.4,4.8,9.6a6.2,6.2,0,0,1,.4,3.3c-.8,4.4-1.8,8.8-2.7,13.2s-1.6,9-2.4,13.5l.9.5c3.3-2.9,6.4-6.2,9.8-8.8,7.2-5.6,11.3-12.5,11.3-21.9.1-6.5-1.6-11.9-6.8-15.5-8.6-6.1-18-7.2-28.3-4.6C31.7,25.6,23.6,37.9,27.3,50.5c1.7,5.9,5.1,11.4,8,17C35.7,68.2,37.1,68.5,38.4,69.1Zm-3.8,8,17.8,4.3c4,.9,4.9.3,5.2-4.3l-23-4.9ZM59.3,45.8l-.9-.7c-1.3,1.5-3.3,2.9-3.9,4.6-1.9,6.2-3.3,12.5-4.7,18.9-.2.7,1.2,2.3,2.2,2.7s2.4-1,2.6-1.7C56.3,61.7,57.8,53.7,59.3,45.8ZM47.8,43.2c-2,8.8-3.9,17.2-5.9,25.8,2,.3,4,2.8,4.9-1,1.2-5.7,2.3-11.4,3.9-17C51.6,47.7,50.5,45.6,47.8,43.2ZM35.2,81.7c3.5,7.9,12.1,9.9,17.8,4.4ZM50,40.9l2.9,3.9,1-.3,3.4-2.4C55.9,39.3,52.9,38.8,50,40.9Z" fill="#48c1d6"/><path d="M44.3,13.8a69.7,69.7,0,0,1-3.1-6.6c-.1-.3,1.4-1.2,2.2-1.8a39.6,39.6,0,0,1,3.1,5.2C46.7,11,45.6,12,44.3,13.8Z" fill="#48c1d6"/><path d="M91.1,20c-2.4,1.8-4,3.2-5.8,4.3-.2.1-1.3-1.2-1.9-1.9a61.2,61.2,0,0,1,4.8-4.1C88.5,18.1,89.6,19.1,91.1,20Z" fill="#48c1d6"/><path d="M23.8,22c-1.5.8-2.7,2-3.3,1.7A17.6,17.6,0,0,1,16,20.5c-.2-.2.2-1.6.6-1.8a3.4,3.4,0,0,1,2.6-.2A40.2,40.2,0,0,1,23.8,22Z" fill="#48c1d6"/><path d="M69.2,9.1c-1.3,1.9-2.4,3.3-3.4,4.7-.6-.7-1.7-1.5-1.6-2a36.5,36.5,0,0,1,2.3-5.4A34,34,0,0,0,69.2,9.1Z" fill="#48c1d6"/><path d="M75.7,71.6,82.4,76c-3.8,2.1-6.8.5-7.5-3.4Z" fill="#48c1d6"/><path d="M95.6,41.6c-2.1-.1-4.1-.1-6.1-.3-.4-.1-.8-1.1-.8-1.6s.7-1.2,1-1.2l6.1.7Z" fill="#48c1d6"/><path d="M12,63.2,9.8,61.6A17.7,17.7,0,0,1,12,60a6.2,6.2,0,0,1,2.3-.7,13.4,13.4,0,0,1,2.8.1c-.5.8-.8,1.9-1.5,2.4A12.3,12.3,0,0,1,12,63.2Z" fill="#48c1d6"/><path d="M13.7,42.6a41.8,41.8,0,0,1-5.6,2c-.6.2-1.5-.8-2.3-1.2s1.2-1.9,1.9-2a34.7,34.7,0,0,1,5.6-.1Z" fill="#48c1d6"/><path d="M91.7,63.5l-5.2-4.3c.6-.5,1.5-1.4,1.8-1.2,1.8,1,3.4,2.2,5.2,3.3Z" fill="#48c1d6"/></svg>