<svg id="Layer_1" data-name="Layer 1" xmlns="http://www.w3.org/2000/svg" width="1.2in" height="0.9in" viewBox="0 0 84.6 68.3"><title>Artboard 7</title><path d="M61.3,16.3c1.3-4.2,3.5-5.3,8.6-4,2.1.6,4.2,1.7,2.8,4.8h3.1c3.6-.3,5,1.2,4.7,4.7-.5,6.7-1,13.5-1.4,20.3s-.4,11-.9,16.5a16.1,16.1,0,0,1-2.1,5.9c-.3.7-1.8,1.2-2.6,1.1C58.7,64.4,44,63.2,29.3,61.7c-7.8-.8-15.5-2-23-3,0-4.9,0-9.9.1-14.8.1-9,.4-18,.7-27,0-4,.2-4,4.3-3.5s5.3,0,7.9.1l14.8.8c.1-2.6.3-4.9.4-7.3s1.2-3.6,4.2-3a44.3,44.3,0,0,0,10.9.4c3.6-.2,5.1.9,4.4,4.4C52.6,16.5,52.8,16.7,61.3,16.3ZM51.6,47.5c.6-.3,1.2-1.2,1.7-1.6,3.5-3.6,3.7-10.5.5-14.5S43.7,26.8,37,30.7c-2.3,1.3-3.5,7.9-2,11.5,2.7,6.6,12.3,9.1,17.5,4.6ZM10.5,54.9l62.7,5.2c.8-7.6,1.6-14.5,2.1-21.3,0-.7-1.2-2.1-1.9-2.1-4.3-.2-8.5-.1-12.8-.1C61.4,51.9,49.7,56.4,37.8,51c-1.7,2.8-4.4,2.4-6.5,1s-3.9-4.5-2.4-6.8c2.5-3.9.2-8.1,2.2-11.9l-20.6-3Zm.3-29.2c5.1.7,9.9,1.8,14.7,2.1,3.1.2,6.4,1,9.4-1.5,6.2-4.9,16.8-3.5,22,2.5a6.5,6.5,0,0,0,3.3,2.1A121,121,0,0,0,73.6,32,3.1,3.1,0,0,0,76,30.1a66.2,66.2,0,0,0,.1-7.7l-65.3-5ZM49,14.9c.2-1.7.4-3.5.7-5.6L38.5,8.5c-.2,2.2-.3,4.2-.5,6.4Z" fill="#48c1d6"/><path d="M50.6,46.8c-.7.1-5.8,2.5-9.5-.1s-5.8-6.6-5.2-9.8,4.8-7.3,7.4-7.5c6.8-.6,9.4,1,10.8,5.2s.6,8.6-3.5,12.2Z" fill="#48c1d6"/></svg>