<svg id="Layer_1" data-name="Layer 1" xmlns="http://www.w3.org/2000/svg" width="1.4in" height="2.1in" viewBox="0 0 99.9 149.2"><title>Artboard 1_1</title><path d="M74.7,82C76,87.1,77,92,78.3,96.8a85.2,85.2,0,0,1,3.6,25.6c-.3,10-7.6,17.8-17.4,18.1a37,37,0,0,1-2.9,4.7c-1.8,2.2-3.6,1.8-5.4-.6a7.8,7.8,0,0,0-3.1-1.7c-1-.3-2.3,0-3.3-.4s-4.4-1.6-6.3,1c-.3.5-2.4.6-2.7.2-2.9-4-7.6-4.1-11.7-5.3-7.3-2.2-10.7-7.7-12.7-14.5-2.8-9.7-.4-18.9,2.7-28.1,1.5-4.6,2.4-9.4,3.5-14,.7-2.8-.8-4-3.2-4.8-5.5-1.8-10.5-4.6-13.5-9.7-4.6-8-5.1-16,2.4-22.9,2.1-1.9,4.4-3.6,6.4-5.5a3.7,3.7,0,0,0,1-2.8,45.3,45.3,0,0,1,10-30.2,13,13,0,0,0,1-1.5c1.1-2,2.9-1.9,4.1-.5,5.1,5.9,11.1,11.1,13.5,19,.3,1.1,2.7,1.9,4.2,2.2,4.2.6,8.5.9,13.1,1.4,2.1-3.8,4.3-8,6.8-12.1,1.5-2.3,3.4-4.3,4.8-6.7s3.6-1.6,4.6-.2c5.3,7.1,9.3,14.8,9.6,23.9a24.6,24.6,0,0,1-.9,7.7c-.9,2.8,0,4.2,2,6,8.8,8.1,10.7,15.8,5.1,26.1-2.9,5.2-8,7.5-13.3,9.3A55.9,55.9,0,0,1,74.7,82Zm-8.8,42.7c-.2-1.9,0-4.2-.6-6.2-2.8-8.9-3.3-17.9-.2-26.8C67.3,85.2,68,76.9,78,77l1.2-.2c8.1-1.9,14.1-9.5,13.6-17.3a24.5,24.5,0,0,1-4.6.4c-9.8-.6-19.5-1.8-28.7-5.6-1-.4-2.3-1.2-2.5-2a24.3,24.3,0,0,1-.3-7.6c.7-4.7,1.9-9.4,3-14.5-3.4-.5-6.7-1.2-10-1.4s-4.5,0-4.7,4.6a16.7,16.7,0,0,1-.2,3.1c-.7,3.7-1.9,7.4-1.9,11.2s-.9,2.8-3,3c-5.4.5-10.8,1.4-16.2,1.7s-10.1.1-15.1.3c-.7.1-1.9,1-1.9,1.7-.8,5,.9,12.5,6.6,16.3s9,3.6,13.7,4.9c1.3.4,3.3,1.2,3.6,2.2,1.2,4,2.4,8,2.5,12.1.2,7.6-.4,15.2-.5,22.9,0,3.2.7,6.4.4,9.5s-1.5,8.6-2.3,13a29.5,29.5,0,0,1,4.6,1c2.5.9,2.8-.4,2.8-2.4s.1-5.8.1-8.7.5-2.7,2.1-2.1a3.5,3.5,0,0,1,1.8,2.6c.2,4,.1,8,.1,11.9a79,79,0,0,0,2.7-9.5c.4-1.7.6-3.7,2.9-3.2s1.7,2.7,1.3,4.4-1.2,5.5-2,8.7h6.8c-.4-3.8-.6-7.1-1.1-10.3s.4-2.2,1.9-2.3,2.1,1.7,2.3,3.2c.4,4,1,8,1.5,12h1.6c.4-4.3.7-8.6,1.2-13,.1-1,.3-2.7.9-3S64.6,124.6,65.9,124.7Zm26.8-69c-2.3-4.1-4.2-7.9-8.2-9.7-6.5-2.9-11-7.9-14.8-13.7a5.4,5.4,0,0,1-.3-4.5c2.2-4.5,4.8-8.7,7.1-13.1.4-.7,0-1.7,0-2.6s-2,.2-2.4.8c-1.9,2.7-3.7,5.6-5.4,8.5s-2.9,6.1-4.4,9.1c-2.7,5.7-4.3,11.7-3.6,18.1a3.9,3.9,0,0,0,3.6,3.9,103.4,103.4,0,0,1,11.1,2.1C81,56.2,86.5,55.9,92.7,55.7ZM9.5,48.6l.3,1.1c8.3-.6,16.6-1,24.9-1.7,3.5-.3,5.3-2.7,5.8-6.1.2-1.5.3-2.9.5-4.3,1.8-11.6-2.2-21-10.5-28.8a4.5,4.5,0,0,0-1.9-.6c2.8,5.5,5.5,10.8,8,16.1.5,1.2.4,3.6-.4,4.2-5.1,4.2-10,8.8-15.8,11.6S12.9,45.6,9.5,48.6Zm17.6,30-1.1.2c1.4,7.3-1.5,13.8-3.6,20.3s-3.9,13.4-2.9,20.5c.7,5.2,2.1,9.9,7.4,14,.8-4.2,1.7-7.7,1.9-11.2.3-5.4-.3-10.9.1-16.3.5-8,1.2-16.1-.7-24A35.8,35.8,0,0,0,27.1,78.6Zm45.3,55.7A17.9,17.9,0,0,0,78,121.4c.4-9.7-2.1-19-4.4-28.3-.5-2.3-1.2-4.6-1.8-6.9-3.1,7.4-5.9,14.6-4.5,22.8,1.1,5.9,1.7,11.9,2.8,17.9A60.7,60.7,0,0,0,72.4,134.3Zm-6.7-7.5c-.4,3.7-.6,6.7-.9,9.7h4.4Z" fill="#48c1d6"/><path d="M65.7,126.8l3.5,9.7H64.8C65.1,133.5,65.3,130.5,65.7,126.8Z" fill="#48c1d6"/><path d="M64.4,67.1c0,9.2-10,11.6-15.9,7.8A10.9,10.9,0,0,0,42,73.1a8.1,8.1,0,0,1-7.6-11.4,20.5,20.5,0,0,1,9-9.4c.9-.5,3.6,0,4,.9s-1,1.9-2.2,2.6c-3.6,2.1-6.4,5.1-7.4,9.1a4.8,4.8,0,0,0,1.6,4.3c.9.6,3.1.3,4.4-.3s3.9-1.2,5.2,1.5,4.4,3.4,6.9,2.6A6.1,6.1,0,0,0,60,67.4a13.2,13.2,0,0,1,.4-3.4c.8.1,1.9,0,2.5.5A9.3,9.3,0,0,1,64.4,67.1Z" fill="#48c1d6"/><path d="M45.8,56.9c5,.1,9.3,2.1,8.5,3.6a23.6,23.6,0,0,1-5.8,6.8c-.9.8-5-5.4-4.6-7.9C44.1,58.4,45.4,57.5,45.8,56.9Z" fill="#48c1d6"/><path d="M75.3,46a3.9,3.9,0,0,1-4,4.2c-2.7,0-6.2-2.7-6.3-4.9s2.5-4.4,5-4.5A5.2,5.2,0,0,1,75.3,46Z" fill="#48c1d6"/><path d="M33.8,45.1c-3.1,0-5.6-1.9-5.6-4.2a5.2,5.2,0,0,1,5-4.4c3.2.1,5.2,1.9,5.2,4.9S36.8,45.2,33.8,45.1Z" fill="#48c1d6"/></svg>