<svg id="Layer_1" data-name="Layer 1" xmlns="http://www.w3.org/2000/svg" width="1.2in" height="1.3in" viewBox="0 0 82.9 96.9"><title>Artboard 3</title><path d="M72.6,34.6c0,9.5-5.3,16.3-11.6,22.5C53.2,65,47,73.9,43.9,84.7c0,.2-.1.4-.1.7,0,2.5-.4,5.4-3.2,5.4s-3.8-2.5-4.5-4.3C32.3,76.3,25.6,68.2,19,59.9S9.8,44.8,9.5,36C9,25,13.7,14.3,25.8,9.1c17-7.3,30.6-3.9,42.6,11.5,2.8,3.6,3.5,9.1,5.2,13.7ZM40.1,82l.8-1.6c2-4.2,3.6-8.9,6.2-12.7A139.3,139.3,0,0,1,59.5,52.5c5.4-5.9,9.4-12.3,8.4-20.7S56.4,11.4,46.4,10.6A47.9,47.9,0,0,0,30,12.5c-8.2,2.3-13,8.4-15.1,16.6C12.2,39.9,16.3,49,22.2,57.5S34,73.7,40.1,82Z" fill="#48c1d6"/><path d="M55.4,35.5c-.3,9.2-4.4,14.3-12.9,14.4S26,43.7,26.2,35.4s5.5-13.6,14.6-13.5S55.3,28.2,55.4,35.5ZM41.3,45.8c6.2-.1,9.7-4,9.7-11,0-4.8-4.4-8.7-9.7-8.6s-10.6,4.1-10.7,9.5C30.3,42.8,36.3,45.8,41.3,45.8Z" fill="#48c1d6"/></svg>