<svg id="Layer_1" data-name="Layer 1" xmlns="http://www.w3.org/2000/svg" width="1.5in" height="1.3in" viewBox="0 0 104.8 91.9"><title>Artboard 12</title><path d="M18.7,49.3a88,88,0,0,1-7.3,6.4c-1,.8-3,1.3-3.8.8s-.1-2.8.8-3.6c3.3-3,6.9-5.8,10.8-9-.4-8.4-.9-17.6-1.3-26.7-.2-4.3.8-5.4,4.8-5.7,10.2-1,20.4-1.8,30.6-2.9,8-.8,16-2.1,24-2.8,1.3-.2,2.7,1.1,4.6,2A28.3,28.3,0,0,1,85.3,4c.9-.7,2.9-1.6,3.6-1.1a64.2,64.2,0,0,1,9.6,7.6c1.8,1.8,1.5,3.9-.5,5.9-3.9,4.1-7.4,8.7-11.4,12.7s-2.2,7-2,10.6c.5,7.4,1.3,14.8,2.1,22.1s1.6,13.9,2.6,20.9c.5,3.3-.2,4.2-3.6,4.4L40.2,89.4c-5.5.3-11,.3-16.4.6-2.5.1-2.6-1.2-2.7-3.2-.4-12.3-1-24.6-1.5-36.9ZM80.4,36.5,69.7,51.9a5.3,5.3,0,0,1-2.3,1.9,27.7,27.7,0,0,1-5.7,1.3c-7.2,1.1-7.1,1.2-6.9-6.4.1-5.6.2-10.3,4.9-13.7a10,10,0,0,0,1.6-1.9c3.5-4.4,6.9-9,10.4-13.4,2.1-2.7,4.2-5.2,6.4-7.9l-.6-.9L20.7,16c.8,9,1.6,18,2.5,27.4l2.4-.6c8-1.7,14.9,1.6,12.3,11.4-.7,2.3-.5,4.8-.6,7.8a.7.7,0,0,0,1.1.6l10.1-5.7A1.6,1.6,0,0,1,50.6,59c-1.6,2.5-4.4,3.7-6.9,5s-5.5,4.3-8.7,1.4-2.5-7-2-10.8c0-.1.1-.2.1-.3,1.9-7.4,1.6-7.7-5.9-7.6-3.2.1-4.1,1.3-3.9,4.4.7,9.1,1,18.2,1.4,27.2a26.9,26.9,0,0,0,.3,5,3.5,3.5,0,0,0,2.5,2.1c4.1.1,8.1-.2,12.2-.5l40-2.1c4.8-.2,5.3-.7,4.7-5.6-1-9.7-2.1-19.4-3.1-29.1C81,44.6,80.8,41.1,80.4,36.5Z" fill="#48c1d6"/></svg>