<svg id="Layer_1" data-name="Layer 1" xmlns="http://www.w3.org/2000/svg" width="1.4in" height="1in" viewBox="0 0 98.6 70.1"><title>Artboard 15</title><path d="M46.5,21.1c10.7.1,18.9,3.9,26.2,10S85.1,41.6,91,47.1c1.4,1.3,1.5,3.8,2.3,5.7a37.3,37.3,0,0,1-4.4,1.4c-3.1.6-6.3,1-9.3,1.8-6.8,1.6-13.4,3.8-20.3,4.9-3.2.6-6.9-.8-10.3-1.6-10-2.6-17.4-9.4-25.4-15.5-2.8-2.2-6.4-3.5-9.5-5.5-1.2-.7-1.9-2.3-2.8-3.5l3.1-1.3,12.3-6C33.3,24.2,40.1,21.6,46.5,21.1Zm9.4,34.7c1.9-.2,4.1.2,5.6-.7,8.9-4.7,9.9-16.3,4.7-23.4s-18.5-7.9-25-3.4-8.7,17.1-1.5,22.1A27.4,27.4,0,0,0,55.9,55.8Zm16-3.1,14.6-3.6-12.8-12C73.1,42.3,72.5,47.4,71.9,52.7ZM19.4,35.8,30,43.6l3.1-14.1Z" fill="#48c1d6"/><path d="M85.4,18.5c-.1,1-.1,1.2-.2,1.2-3.4,2.2-6.9,4.4-10.5,6.4-.2.1-1.4-.9-1.6-1.5s.3-1.4.8-1.8a48.5,48.5,0,0,1,7.4-4.7C82.4,17.6,84.1,18.3,85.4,18.5Z" fill="#48c1d6"/><path d="M55.2,8.4c2.8-.8,3.8.5,3.8,2.8a15,15,0,0,1-.4,4.3c-.2.8-1.3,1.3-2,1.9s-1.8-1.6-1.9-2.4A51.4,51.4,0,0,1,55.2,8.4Z" fill="#48c1d6"/><path d="M39.1,15.6c-3.3,1.2-7.7-1.9-8.2-4.3-.1-.3.1-1.1.4-1.1s1.5-.4,1.8-.1C35.2,11.9,37.1,13.8,39.1,15.6Z" fill="#48c1d6"/><path d="M65.5,43.2c-1,0-2.2.5-3.2.2s-2.9-.7-4.5,1-4.3,2.8-6.6,4c-.4.2-1.5-.3-1.8-.7-1-2.2-1.8-4.5-3-6.6s-1.9-1.4-2.7-2.3a13.8,13.8,0,0,1-1.4-2.4l2.7-.2c1,0,2.3.2,3-.3s5.6-1.5,5.7-5.2c0-.3,1.4-.9,1.6-.7a2.8,2.8,0,0,1,1.2,1.9,8.4,8.4,0,0,0,5.4,8.2,37.3,37.3,0,0,1,3.5,1.6Z" fill="#48c1d6"/></svg>