<svg id="svg3003" xmlns="http://www.w3.org/2000/svg" width="51.7" height="51.5" viewBox="0 0 51.7 51.5"><title>instagram</title><path id="rect3687" d="M15,0A15,15,0,0,0,0,15V36.6A15.1,15.1,0,0,0,15,51.5H36.8A14.9,14.9,0,0,0,51.7,36.6h0V15A15.1,15.1,0,0,0,36.8,0Zm0,4.4H36.8A10.5,10.5,0,0,1,47.3,14.9h0V36.6A10.5,10.5,0,0,1,37,47.1H15A10.5,10.5,0,0,1,4.5,36.8V15A10.5,10.5,0,0,1,14.9,4.4ZM39.8,8.9a2.9,2.9,0,0,0-3.1,2.9V12a3.1,3.1,0,1,0,3.1-3.1ZM25.9,12.5A13.3,13.3,0,1,0,39.2,25.8h0A13.5,13.5,0,0,0,25.9,12.5Zm0,4.4A8.9,8.9,0,1,1,17,25.8a8.7,8.7,0,0,1,8.7-8.9Z" fill="#fff"/></svg>