<svg id="Layer_1" data-name="Layer 1" xmlns="http://www.w3.org/2000/svg" width="1.4in" height="1.4in" viewBox="0 0 100.3 103.6"><title>Artboard 6</title><path d="M96.6,11.7v4.5L96,25.5c-.8,10.7-1.6,21.4-2.3,32.1a2.7,2.7,0,0,0,.4,1.6c2.8,2.3,1.4,4-.4,6.3-6.2,8.1-12,16.4-18,24.7l-.8,1.2c-2.6,4.9-2.6,4.9-7.7,3.7L22.9,85,5.1,80.7c-.8-.2-2.1-1.2-2-1.7s.6-3.6,1.7-4.8c4.9-4.9,9.8-9.8,15.1-14.2s5.5-8.9,6.1-14.3q1.5-14.6,3.3-29.1A36.8,36.8,0,0,1,31,9.3a3.9,3.9,0,0,1,3.1-1.8c16.7.8,33.4,1.7,50.1,2.8C88,10.5,91.7,11.1,96.6,11.7Zm-3.5,4.7c-5.6-.7-10.5-1.5-15.3-1.8-13.9-1-27.7-1.7-41.5-2.7-2.3-.1-3,.5-3.2,2.9-1,9.3-2.3,18.6-3.5,28-.3,2.9-.5,5.9-.8,9.6L89.9,59C91,44.6,92,30.5,93.1,16.4ZM84,71.3c1.1-1.4,2-2.5,2.8-3.7l2-3.7c-2.7-.4-5-.6-7.3-1.1-6.5-1.3-7.6-.8-11.7,5.5ZM74.6,84c-4.4-.9-8.4-1.4-12.1-2.5s-4.1-.6-5.1,1.9-1.2,2.4-1.9,3.9l13.7,2.9a2.4,2.4,0,0,0,1.8-.9C72.2,87.7,73.3,85.9,74.6,84ZM55.2,80,44.1,77.9c-4.2-.8-5.6,2.3-7.3,5.2l7,1.9c7.6,1.6,7.6,1.6,11.4-4.6ZM62,77.4c4,.7,8,.9,11.7,2s5.8-.7,7.1-4a7.4,7.4,0,0,0-2.1-.9l-6.5-1.6C66.1,71.5,66.1,71.6,62,77.4Zm.7-6.2-7.5-1.7c-5.7-1.4-8.2-.3-10.3,4.8a59.8,59.8,0,0,1,8.5,1C59.2,76.5,59.2,76.7,62.7,71.2Zm-18-3.4c-1.4-.4-2.7-1-4.1-1.3C32.4,64.8,31,65.3,28,70.9c1.2.3,2.3,1,3.4,1C36,71.7,41.7,75.5,44.7,67.8Zm25.8-5.4C59.1,59.7,54.7,59,52.8,64.6A53.6,53.6,0,0,0,58.2,66c4.5.9,9.2,2.6,12.1-3C70.4,62.9,70.4,62.8,70.5,62.4ZM37.7,76.9,23.5,74.5,20.1,79c3.9,1.1,7.5,2.2,11.2,3a3.9,3.9,0,0,0,2.9-1.1A37,37,0,0,0,37.7,76.9ZM52,59.5c-2.6-.3-4.8-.4-7-.8s-6.3-.6-8.1,3.3C42,61.5,47.7,67.2,52,59.5Zm-22.7,5c-5.8-2.2-8.7-.9-11.8,5C23.1,72.5,26.1,68.6,29.3,64.5Zm-19,11.7c6.1,2.6,6.8,2.5,10.3-2.7C17,74.2,13,71.7,10.3,76.2ZM35.4,58c-5-2.2-7.3-1.7-8.4,1.4C31.7,61.4,32.8,61.3,35.4,58Z" fill="#48c1d6"/><path d="M55.9,44.1l6-9.7,5.4-9.2c3.3,1.1,3.9,2.2,2.4,4.9C66.4,35.9,63,41.6,59.6,47.2c-.3.6-1.7,1.4-2,1.2a16,16,0,0,1-2.5-2.2c-1.8-.9-3.2-1.1-3.9-1.9-2.7-3.3-5.3-6.6-7.8-10.1-1.1-1.5-1.7-3,.6-4.4s5.1-3.7,7.8-5.5c.6-.4,1.7-.3,2.5-.5s.3,2.7-.3,3.5a32.3,32.3,0,0,1-4.9,4.1c-1.6,1.2-2.1,2.3-.5,4.1S53.2,40.8,55.9,44.1Z" fill="#48c1d6"/><path d="M82.1,40c-2-4.4-8-6.5-5.8-12.9,1,.5,1.5.6,1.8,1,3.1,3.8,6.3,7.5,9.3,11.4,1.2,1.6,1,2.8-1.2,3.9a128.7,128.7,0,0,0-13.1,7.3c-1.5,1-2.5,2.1-4.1.2s-.2-3.3,1.4-4.3Z" fill="#48c1d6"/></svg>