<svg id="Layer_1" data-name="Layer 1" xmlns="http://www.w3.org/2000/svg" width="1in" height="1.5in" viewBox="0 0 73.4 109.2"><title>Artboard 8</title><path d="M7.5,23c.4-5.3.4-9.1,1.1-12.7.2-1.1,2.4-2.7,3.6-2.6,9.4.3,18.7,1.5,28.1,1.5S57,8.4,65.4,7.8c3.4-.3,5.6,2,4.9,5.3-1.1,5.5-2.3,11-3.4,16.5-.5,2.4-1.5,3.6-4.1,2.3a11.8,11.8,0,0,0-3-1L29,29c-6.1-.5-12.2-.9-18.2-2C9.1,26.7,8,23.7,7.5,23Zm38.4-3.5c4.3,2.2,7.3,4.3,10.7,5.5s5.1,1.7,6.1-1.8,1.1-5.6,1.6-8.2Zm-21.7-.8V17.2L12,13.8c.2,2.7.4,4.3.5,6.3Zm19.2,5.9.3-1.7-13.9-1c0,.4-.1.9-.1,1.3ZM30.8,14.3v1h12v-1Z" fill="#48c1d6"/><path d="M56.4,71.9c-5.8-.8-10.4-1-14.8-2s-4.8-4.1-4.5-7.5c.5-6.4,1.1-12.8,1.9-19.2.5-3.8,2.9-4.9,6.8-4.5a50.9,50.9,0,0,0,11-.4c6.6-.6,8.1.7,7.3,7.3S62,60.7,61.2,68.3C60.8,72.6,58.2,72.4,56.4,71.9ZM43.3,46.2c-.2,5.3-.5,9.7-.8,15.2C49.1,54.2,49.2,53.4,43.3,46.2Zm11.8,22,1-1.4-5.1-7-5,6.3Zm-4-16.7c1.7-2.8,3.1-4.9,4.6-7.3H48.2Z" fill="#48c1d6"/><path d="M6.8,73.2c6.7.7,12.4,1.4,18.1,1.8s4.9,1.8,3.6,6.2a72.2,72.2,0,0,0-2.4,13.9c-.4,3.5-2.2,4.6-5.2,4.2A81.3,81.3,0,0,1,7.8,97.2c-1.4-.3-3.1-2.9-3-4.3C5.1,86.3,6.1,79.7,6.8,73.2Zm9.1,10.2L20.6,80l-.6-.8H13.9Z" fill="#48c1d6"/><path d="M31,66.2c-7.2-.7-14.5-1.2-21.7-2.3-1-.1-1.6-2.7-2.4-4.2,1.3-.4,2.7-1.3,4-1.2a121.4,121.4,0,0,1,14.9,2.1c2.3.6,4.2,2.5,6.3,3.8Z" fill="#48c1d6"/><path d="M32.6,44a56,56,0,0,1-5.9-.1,110.8,110.8,0,0,1-14.1-1.7c-1.3-.3-2.1-2.7-3.1-4.1,1.3-.4,2.7-1.3,4.1-1.2,4.1.3,8.1,1.4,12.2,1.3S31.5,39.5,32.6,44Z" fill="#48c1d6"/><path d="M56,105.3l-13.1-2.7c-2.4-.4-4.9-1.3-7.3-1.3-4.1.1-4.5-1.9-3.9-6.2,7.9,2,15.6,4,23.2,6.2C55.4,101.4,55.5,103.3,56,105.3Z" fill="#48c1d6"/><path d="M9.5,47.9c5.8.5,11.6.8,17.2,1.8,1.2.2,2,2.7,2.9,4.2-1.5.4-3,1.1-4.5,1a105.4,105.4,0,0,1-11.3-1.1C10.2,53.4,8.6,51.6,9.5,47.9Z" fill="#48c1d6"/><path d="M50.8,84.3c-4.2-.3-8.5-.3-12.7-1.1-1.1-.2-1.8-2.6-2.8-4,1.3-.6,2.7-1.7,4-1.7,3.8.3,7.5,1.2,11.3,1.4s4.8.8,4.8,3.5c-.1,1-2.7,2-4.1,2.9Z" fill="#48c1d6"/><path d="M52.9,94c-4.8-.3-9.4-.3-13.8-1-1.4-.2-3.6-2.3-3.6-3.6,0-3.2,2.4-1.3,4-1.2h7.3C50,88.4,52.3,89.8,52.9,94Z" fill="#48c1d6"/></svg>