<svg id="Layer_1" data-name="Layer 1" xmlns="http://www.w3.org/2000/svg" width="1.1in" height="1.1in" viewBox="0 0 81.2 81.8"><title>Artboard 13</title><path d="M38.5,57.2a1.2,1.2,0,0,0-.4-2.2l-6.2-2c-7.9-2.4-16-4.4-20.3-12.5a11,11,0,0,1-1.2-5.1c.2-8.2.4-16.4.8-24.6a8.8,8.8,0,0,1,2.2-5.6c.7-.7,3.4.5,5,1.1,6.3,2.5,12.4,5.3,18.7,7.7s12.3,5,16.2,10.7A28.1,28.1,0,0,1,58.2,42a1.3,1.3,0,0,0,2,1.1l4-2.8c4.2-3.2,7.1-2.5,9.4,2.3,1.3,2.6,2.2,5.3,3.6,7.8s.6,3-1.2,4.1c-6.5,3.7-13,7.4-19.4,11.4S45.7,73.2,40.1,76.7c-.7.5-2,1-2.5.7a51.2,51.2,0,0,1-6.3-5c-1.7-1.7-4.1-3.2-2.7-6.3a4.4,4.4,0,0,1,.7-1.7ZM72,51.8a1.3,1.3,0,0,0,.6-1.6c-.8-2-1.4-3.7-2.1-5.3s-1.8-2.7-3.8-1.2a85.9,85.9,0,0,1-7.3,5c-1.2.7-3,1.5-4.1,1.1s-1.8-2.4-1.9-3.7c-.3-3,0-6-.1-9A19.5,19.5,0,0,0,40.9,19.9L22.5,12.6h0a1.3,1.3,0,0,0-1.6,1.9c2.4,3.7,4.5,7,6.5,10.4s2.8,3.2,5.5,1.6A7.5,7.5,0,0,1,43.3,30c2.2,4.7.8,7.9-4.9,10.8-3.5,1.8-6.7.6-9.6-1.5s-4.6-3.8-4.3-7.3a10.1,10.1,0,0,0-.7-4.9c-1.6-3.1-3.4-6.1-5.2-9l-3.4.9c0,4.1-.1,8.3,0,12.4a16.8,16.8,0,0,0,13,16.1c3.7.9,7.5,1.5,11,2.8a9.2,9.2,0,0,1,4.7,4.8c.9,2.7-.4,5.3-3.5,6.5a18.6,18.6,0,0,0-4.1,2.8c-3.4,2.6-3.5,5.3.2,7.2,1.4.7,4.1.1,5.6-.9,5.3-3.2,10.1-6.9,15.3-10.2S67.1,54.7,72,51.8ZM29.6,31.9c-.8.5-.2,2.6.5,3.1a8.3,8.3,0,0,0,3.8,2.2A6.6,6.6,0,0,0,39,35.1c.7-.8-.2-3.6-1.3-4.8s-4-2.2-5.5-.5A8.2,8.2,0,0,1,29.6,31.9Z" fill="#48c1d6"/></svg>