<svg id="Layer_1" data-name="Layer 1" xmlns="http://www.w3.org/2000/svg" width="0.9in" height="1.2in" viewBox="0 0 63.9 84"><title>Artboard 9</title><path d="M42.5,8.4C50,8,58.3,14.3,60.4,21.1c1.6,5.1-.4,10.3-3.6,14.4-5.6,7.4-11.9,14.3-17.5,21.7-3.1,4-5.2,8.8-8.2,12.9-1.1,1.5-3.3,2.4-5.2,3.1-5.5,2.1-11,4-16.6,5.9-3,1-4.6-.6-4.6-3.8.1-7-.4-14-.4-21.1A9.9,9.9,0,0,1,5.9,49c4.7-7.8,9.7-15.5,14.5-23.2a66.3,66.3,0,0,0,2.9-6C27.4,12,34.8,10,42.5,8.4ZM8.7,52.7,11.4,54c5,2.6,6.8,2.2,10-2.4s5.5-8.6,8.4-12.8c4.7-6.8,4.8-6.9-2.6-10.7a4.1,4.1,0,0,0-3.8.7C18.4,36.6,13.7,44.5,8.7,52.7ZM27.6,66.6,46.2,40.7c-3-2-5.9-3.9-8.7-5.9-4.7,6.9-9.4,13.6-13.9,20.4-.7,1.1-1.1,3-.6,4C24.1,61.8,25.9,64,27.6,66.6ZM54.3,31.1c3.9-7.7.6-11.9-6-16.7-4.2-3.2-14-1.2-17.6,3.7ZM9.2,57.6C8.6,63.3,7.8,68.8,14,71.7c4.3,2,7.2-1.8,10.6-2.9C21.9,61.5,16.3,58.8,9.2,57.6Z" fill="#48c1d6"/></svg>