<svg id="Layer_1" data-name="Layer 1" xmlns="http://www.w3.org/2000/svg" width="1.5in" height="2.1in" viewBox="0 0 111.4 148.1"><title>Artboard 1</title><path d="M34.1,22.3c-.2-3.5-.5-7.6-.6-11.6,0-1.1.3-2.6,1-3.1a3.7,3.7,0,0,1,3.2.4c7,3.9,7.8,3.7,12.2-3,1.5-2.2,3.2-2.6,5.4-1a40.1,40.1,0,0,0,6.3,4.5,5.1,5.1,0,0,0,4,0c1.3-.7,2-2.3,3.1-3.4s2.2-2,2.6-1.8a4.9,4.9,0,0,1,2.2,2.9c.9,5.2,1.8,10.4,2.2,15.6S77,30.3,81,33.5c6.4,5.2,9.3,13,11.9,20.5,3.3,9.4,4.7,16.7,7,26.4.9,3.7,1.1,10.2.9,14.2a7.6,7.6,0,0,0,.1,3c1.1,5.1,3.1,10.1,3.4,15.3.5,8.5-2.5,16.2-10.2,20.6-5.9,3.3-12.3,6.3-18.8,7.7s-11.5.6-17.3.1c-7.9-.6-16.1-.8-23.6-3-13.5-4.1-25.5-11.1-28.7-26.4-1-4.5.4-9.8,1.5-14.5s3.7-10,5.1-15.1c2.4-8.3,4.5-16.8,6.6-25.2s5.4-19.5,14-26.2A3.9,3.9,0,0,0,34,28.2,55,55,0,0,0,34.1,22.3ZM47.9,136.2c-.7-4.6-1.9-6.8-1.5-9.5.8-5.3,1.6-10.5,3.7-15.6,1.2-3.1,4.4-4.8,8.2-4.3s3.9,2.9,4.8,5.4,1.1,2.3,1.1,3.4c.1,5.4,0,10.9,0,16.3,11.8-2.9,21.1-15.1,18.5-25-4.5-.5-8.9-.8-13.2-1.6s-6-2.7-6.4-6.3,1.7-5.6,4.7-6.8l3.4-1.3c4.6-2,9.9-3.5,10.2-10C82,68.5,77,58.2,69.3,49.1c-2.2-2.5-5.8-3.5-8.4-1.2s-4.5,5.6-6.3,8.7,1.9,3.1,3,4.4c2.9,3.2,2.5,7.2,3.4,10.9,1.8,7.1-4.1,13.3-10.5,13.3S39,81.1,37.9,76.4s-1-11.5,4.4-15.5c1-.8,2.4-1.9,2.4-2.8a81.5,81.5,0,0,0-1.3-12c-.6-2.9-2.9-3.4-5.6-1.9-5.2,2.8-8.7,7.3-11,12.6s-4.4,12.3-6.9,18.4c-3.8,9-8,17.9-9.5,27.8-.8,5.8-.9,11.3,3.3,16.4.4-6.4,1.9-10.6,4.8-13.9s10-4.1,12.4,1.5c3.6,8.3,4.7,16.7-1.5,25.2ZM37.4,28.2C49.6,22.9,61.1,23,73,28.1c-.8-6.5-1.5-12.3-2.3-18.7-1.8,1.7-3.4,2.7-4.4,4.1s-2.9,1.8-4.6.3S57.9,10.6,56,9s-3.2-1.1-4.6.3a58,58,0,0,0-4.7,5.2c-1.7,2.3-3.2,1.8-5,.2l-4.2-3.3-1,.6C36.8,17.1,37.1,22.2,37.4,28.2ZM60.5,123c-.8-3.8-1.3-6.8-2.1-9.7s-2.9-3.2-4.3-.8a26,26,0,0,0-3.2,16.1c.2,1.4,1.9,2.9,3.2,3.5s3-.8,3.5-1.8A42.5,42.5,0,0,0,60.5,123Zm-36.4,5.3c6.2-4.7,5.4-17.6-1.2-21.2C16.9,114.1,17.4,124.2,24.1,128.3ZM41.8,73.2c1.1,3.1,2.8,5.5,5.7,6.1,4.8,1,6.6-.2,8.9-5.2Zm1.5-5.3c3.4.2,6.5.5,9.6.5.9.1,2.4-.4,2.5-.9a5,5,0,0,0-.8-2.8c-1.4-2.3-2.9-2.4-5.6-1.4S44.1,64.4,43.3,67.9Z" fill="#48c1d6"/><path d="M68.3,68.2c-3.8-.2-5.6-2-5.5-5.5s2.5-5.1,5-4.9,5.5,3.7,5.2,7.1S70.7,68.4,68.3,68.2Z" fill="#48c1d6"/><path d="M34.4,63.6c-2.7-.1-6.1-3.1-6.1-5.5S31.4,53,33.6,53,39,56,39,58.7A4.7,4.7,0,0,1,34.4,63.6Z" fill="#48c1d6"/><path d="M56.8,18.6a15.3,15.3,0,0,1-1.4,2.1,1,1,0,0,1-1.6.2c-4.5-3.8-4.9-4.8-.6-8.6a1.1,1.1,0,0,1,1.5,0A6.9,6.9,0,0,0,56,13.4,3.9,3.9,0,0,1,56.8,18.6Z" fill="#48c1d6"/></svg>