<svg id="Layer_1" data-name="Layer 1" xmlns="http://www.w3.org/2000/svg" width="1.2in" height="1.1in" viewBox="0 0 83.5 77.3"><title>Artboard 5</title><path d="M5.6,28.2c0-4.4-.1-10.8,0-17.1,0-3.8,1.5-4.7,5.4-4.6,10.7.3,21.4.4,32.2.4s22.3-.1,33.4,0c1,.1,3,2,2.9,3.1-.2,6.7-.9,13.4-1.4,20.1-.6,8.5-1.3,17.1-2,25.7-.3,4-.4,8.1-.7,12.1s-1.4,4.2-4.9,3.9C53.9,70.3,37.4,67.4,20.6,68a62.3,62.3,0,0,1-13.7-.9c-1.7-.3-4.1-3.2-4-4.9C3.4,51.5,4.5,40.8,5.6,28.2ZM70.8,66.5c1-12.6,2-24.8,3.1-37.6H30.2c-.3,2.5-.7,5-.8,7.5-.3,7.8-.3,15.5-.8,23.3-.1,3,.9,3.9,3.7,4.1,10.6.7,21.2,1.8,31.8,2.6C66.2,66.6,68.3,66.5,70.8,66.5Zm3.9-55.4L9.9,12.2Q9.6,16.7,9,23l65.7,1.4ZM24.5,63.3c.4-11,.8-21.4,1.1-31.8,0-1-.9-2.8-1.6-2.9a115,115,0,0,0-11.8-.8c-2.3-.1-3.1,1.1-3.1,3.6,0,4.6-.3,9.3-.5,13.9S7.9,56.4,7.6,62Z" fill="#48c1d6"/></svg>