<svg id="Layer_1" data-name="Layer 1" xmlns="http://www.w3.org/2000/svg" width="1.6in" height="1.2in" viewBox="0 0 116.5 87.4"><title>Artboard 11</title><path d="M99.3,9.3l5.9-2.6c2.7-1.2,4.8-.2,6.7,1.7s1.5,3.9.4,6.2c-2.1,4.3-6.1,6.4-10,8.5s-4.3,4-4.3,7.7c.2,17,.1,34,.1,50.5-8.6,4.3-16.7,1.6-24.6,1.6s-14.8-.8-22.2-1.4c-11.9-1-23.7-2.3-35.6-3.4-2.2-.2-4.4.1-6.5-.3s-2.4-1.6-2.4-2.4c-.1-8.5.3-17,.2-25.4C6.8,36.1,6.4,22.2,5.9,8.3c-.1-3,1.1-3.9,4-3.9H85.3a43.7,43.7,0,0,0,7.2-.6C97.5,3.1,98.6,3.8,99.3,9.3Zm-20.6,29c1.1,2.4,1.2,3.9-2,4.3s-8.3,1.7-12.5,2.1-4.6-2.1-3.5-5.3a68.6,68.6,0,0,0,2.8-9.1c.4-2.4,1.6-3.1,3.7-2.7.6.1,1.3.5,1.6.3l14-8.8c-6.8-.5-12.4-1.1-18-1.4l-30.5-1c-2,0-2.5.8-2.5,2.9.2,10.7.1,21.5.2,32.3V63.5l50.4,4V36.2ZM92.2,78.9c.5-17.4,1-33.6,1.5-50-5.3,2.1-7,5.6-6.5,10.6.3,3.2-.2,6.5-.2,9.7,0,5.9.1,11.8.2,17.7s-2.7,6.7-7.5,5.9-8.4-1.7-12.6-2c-11.2-.7-22.4-1.1-33.6-1.5-4.9-.1-5.9-1-5.9-6.1V14.6c1.2-.4,3.1-1.4,5-1.4,14,.1,28,.5,42,.8,3.3.1,7.3-.7,9.8.8,4,2.3,5.9-.5,8.3-1.8s1.4-2.4,2.5-4.2H90.1L21.5,8.1c-3.8,0-7.6.4-11.1.6V20.9c2.8,0,5.2.1,7.5,0,3.8-.2,4.7.6,4.6,4.2s-.3,6.2-.2,9.3l.9,22.5a5.4,5.4,0,0,1-4.9,5.2,25.1,25.1,0,0,0-3.9.1c-.9.1-2.4.8-2.4,1.4-.3,3.3-.1,6.6-.1,10.3ZM10.6,39.5c2.9-.6,6.9-.9,7-1.5a37.2,37.2,0,0,0-.7-12c-.1-.8-4.1-.7-6.3-1Zm.5,4c.3,5.2.6,9.9.9,14.6,6,1,6.1.8,6.2-4.6V42.4Z" fill="#48c1d6"/></svg>