<svg id="svg3003" xmlns="http://www.w3.org/2000/svg" width="40.5" height="46.2" viewBox="0 0 40.5 46.2"><title>vimeo</title><path id="path4026" d="M40.5,23a13.2,13.2,0,0,1-3.4.4c-5.8,0-10.3-4.1-10.3-11.2C26.8,8.8,28.1,7,30,7s3,1.6,3,4.9a21.8,21.8,0,0,1-.9,5.1s1.8,3.1,6.7,2.2a19.8,19.8,0,0,0,1.7-8C40.5,4.1,36.9,0,30.2,0S19.5,5.3,19.5,12.1s3.2,12.7,8.4,15.4A43.7,43.7,0,0,1,20,38.7C14.6,32.3,9.8,23.7,7.8,7H0C3.6,34.9,14.4,43.8,17.3,45.5a4.3,4.3,0,0,0,4.5.1c2.3-1.4,9.3-8.3,13.1-16.5a26,26,0,0,0,5.6-.6Z" fill="#fff"/></svg>