<?xml version="1.0" encoding="utf-8"?>
<!-- Generator: Adobe Illustrator 22.0.1, SVG Export Plug-In . SVG Version: 6.00 Build 0)  -->
<!DOCTYPE svg PUBLIC "-//W3C//DTD SVG 1.1//EN" "http://www.w3.org/Graphics/SVG/1.1/DTD/svg11.dtd">
<svg version="1.1" id="Layer_1" xmlns="http://www.w3.org/2000/svg" xmlns:xlink="http://www.w3.org/1999/xlink" x="0px" y="0px"
	 viewBox="0 0 100 100" style="enable-background:new 0 0 100 100;" xml:space="preserve">
<style type="text/css">
	.st0{fill:#FFFFFF;stroke:#FFFFFF;stroke-width:1.6221;stroke-miterlimit:10;}
	.st1{fill:#46C0D7;}
	.st2{fill:none;stroke:#46C0D7;stroke-width:4.3127;stroke-miterlimit:10;}
	.st3{fill:#FFFFFF;stroke:#FFFFFF;stroke-width:2.4331;stroke-miterlimit:10;}
</style>
<circle class="st0" cx="49.6" cy="49.8" r="46.2"/>
<circle class="st1" cx="49.8" cy="49.1" r="39"/>
<circle class="st2" cx="49.8" cy="50" r="46.7"/>
<g>
	<g>
		<path class="st0" d="M51.2,18.7c1.3,0.3,2.3,0.8,3,1.7c0.7,0.9,0.8,2.3,0.3,4.1c-0.2,0.6-0.5,1.8-1.1,3.4
			c-0.6,1.7-1.3,3.6-2.2,5.8c-0.8,2.2-1.8,4.6-2.7,7.2c-1,2.6-2,5.1-2.9,7.5l1.2,0.2c0.4,0.1,0.8,0.1,1.2,0.2
			c0.4,0.1,0.9,0.1,1.4,0.1c-0.3,0.4-0.6,0.8-0.9,1.1c-0.3,0.3-0.6,0.6-0.9,0.9c-0.3,0.3-0.6,0.5-1,0.7c-0.4,0.3-0.9,0.6-1.4,0.8
			c-0.5,0.2-1,0.4-1.4,0.5c-0.6,1.8-1.2,3.3-1.6,4.7c-0.5,1.4-0.8,2.5-1,3.4c-0.4,1.4-0.6,2.7-0.7,3.9c-0.1,1.1-0.1,2.2,0,3.4
			c0.1,1.2,0.5,2.2,1.1,3l-6.8,0.8c-0.3-0.7-0.5-1.6-0.5-2.7c0-1.1,0.1-2.2,0.2-3.2c0.1-1.2,0.4-2.5,0.7-3.8
			c0.3-1.3,0.9-2.9,1.6-4.9c0.8-2,1.6-4.2,2.5-6.6c-0.7-0.4-1.5-0.7-2.3-1c-0.8-0.3-1.8-0.6-2.9-0.8c-1-0.2-2-0.4-3-0.5
			c-1.1-0.1-2.1-0.3-3.2-0.4c-0.8,1.5-1.6,3.1-2.4,4.9c-0.9,1.9-1.6,3.4-2.3,4.7c-0.7,1.3-1.3,2.4-1.8,3.2c-0.5,0.8-1,1.5-1.5,2
			c-0.5,0.5-0.9,0.8-1.4,1c-0.5,0.1-1.1,0.2-1.8,0.3c-0.7,0.1-1.5,0.1-2.5,0.1c-1,0-2.3-0.1-3.8-0.3c0.7-0.6,1.3-1.1,1.8-1.5
			c0.5-0.5,1.1-1.1,1.6-1.8c0.6-0.7,1.2-1.7,2-2.8c0.8-1.2,1.7-2.7,2.9-4.6c0.5-0.8,1-1.6,1.6-2.6c0.6-0.9,1.1-1.9,1.8-2.9
			c-1.4-0.1-2.5-0.1-3.5-0.2c-0.9,0-1.5,0-1.7,0c-0.3,0-0.5-0.1-0.7-0.1c-0.5-0.2-0.7-0.5-0.6-0.9c0.1-0.5,0.4-0.8,0.7-0.9
			c0.4-0.1,0.9-0.2,1.5-0.4c0.3-0.1,1-0.2,2.2-0.4c1.1-0.2,2.5-0.3,4.1-0.5c0.9-1.4,1.7-2.9,2.6-4.3c0.8-1.4,1.7-2.8,2.5-4.1
			c0.8-1.3,1.6-2.5,2.3-3.6c0.7-1.1,1.4-2.1,2-2.9c0.9-1.2,2-2.6,3.3-4c1.3-1.4,2.7-2.7,4.3-3.9c1.6-1.2,3.2-2.1,4.9-2.7
			C47.8,18.5,49.5,18.4,51.2,18.7z M48.2,30.1c0.7-1.6,1.3-2.9,1.7-3.9c0.4-1,0.6-1.9,0.7-2.5c0.1-0.6,0.1-1.1-0.1-1.3
			c-0.2-0.3-0.4-0.4-0.7-0.5c-0.5-0.1-1.1,0-1.9,0.2c-0.8,0.2-1.6,0.6-2.5,1.1c-0.9,0.5-1.8,1.2-2.8,2.1c-1,0.9-1.9,1.9-2.7,3
			c-1.2,1.7-2.7,3.9-4.3,6.5c-1.6,2.6-3.5,5.9-5.6,9.9c0.8,0,1.5,0.1,2.2,0.2c0.7,0.1,1.4,0.2,2.1,0.3c1.2,0.3,2.4,0.5,3.6,0.9
			c1.1,0.3,2.1,0.6,3.1,0.9c0.7-1.7,1.4-3.4,2.1-5c0.7-1.6,1.4-3.2,2-4.7c0.6-1.5,1.2-2.8,1.8-4.1C47.4,31.9,47.8,30.9,48.2,30.1z"
			/>
	</g>
</g>
<g>
	<g>
		<path class="st3" d="M55,77.1c-1.5-0.4-2.8-1.2-3.8-2.3c-1-1.1-1.7-2.4-2.2-3.9c-0.5-1.5-0.7-3.2-0.6-5c0.1-1.8,0.4-3.7,1-5.6
			c0.6-1.8,1.4-3.7,2.4-5.7c1-2,2.2-3.9,3.6-5.8c1.4-1.9,2.9-3.7,4.5-5.3c1.6-1.7,3.4-3,5.2-4.1c1.8-1.1,3.7-1.8,5.7-2.3
			c2-0.4,3.9-0.3,6,0.3c1.2,0.4,2.2,0.9,2.9,1.7c0.7,0.8,1.2,1.6,1.5,2.6c0.3,1,0.4,2,0.3,3.1c-0.1,1.1-0.3,2.1-0.7,3.2
			c-0.4,1-0.8,1.9-1.3,2.8c-0.5,0.9-1.1,1.6-1.7,2.2c-0.6,0.6-1.3,1.1-2,1.3c-0.7,0.3-1.4,0.3-2.2,0.1c-0.4-0.1-0.7-0.4-0.9-0.7
			c-0.2-0.3-0.5-0.6-0.7-1.1c-0.2-0.5-0.3-1.1-0.4-1.8c0.9-0.1,1.7-0.5,2.4-1.2c0.7-0.7,1.3-1.4,1.8-2.3c0.6-0.9,1.1-2,1.6-3.3
			c0.4-1.2,0.4-2.2,0-2.9s-1-1.2-1.7-1.4c-1.4-0.4-3.1-0.1-5.1,0.9c-2,1-4,2.6-6.1,4.7c-2.1,2.1-4.1,4.7-6,7.8
			c-1.9,3.1-3.5,6.4-4.7,10.1c-0.6,1.7-0.9,3.1-0.9,4.4c-0.1,1.3,0.1,2.3,0.4,3.2c0.3,0.9,0.7,1.6,1.3,2.2c0.6,0.5,1.2,0.9,1.8,1.1
			c1.1,0.3,2.1,0.4,3.2,0.2c1.1-0.2,2.1-0.5,3-0.9c1-0.4,1.8-0.9,2.6-1.5c0.8-0.5,1.4-1,1.8-1.5c0.3-0.3,0.6-0.5,0.9-0.5
			c0.3,0,0.5,0.1,0.6,0.3c0.1,0.2,0.2,0.4,0.2,0.7c0,0.3-0.2,0.6-0.5,1c-0.8,0.9-1.7,1.7-2.8,2.5s-2.1,1.5-3.3,2
			c-1.2,0.6-2.4,0.9-3.6,1.1C57.4,77.5,56.2,77.4,55,77.1z"/>
	</g>
</g>
</svg>
