<svg id="Layer_1" data-name="Layer 1" xmlns="http://www.w3.org/2000/svg" width="1.1in" height="1.2in" viewBox="0 0 82.6 88.2"><title>Artboard 14</title><path d="M76.1,17a62.5,62.5,0,0,1-4.5,9.4c-5.7,9.4-13.8,16.8-22.7,23.3-3.1,2.2-5.1,4.3-4.9,8.7.4,8.1-3.8,12.1-12,13.3-5.9.8-11.7,2.2-17.5,3-1.2.1-2.7-1.5-4-2.3.6-1,1.1-2.4,2-3,5.1-3,6-8,6.3-13.1s.6-7.3,3.6-10A11,11,0,0,1,31.2,43c1.2.1,2.9-1.3,3.6-2.4,3.7-5.8,6.7-11.9,10.6-17.4C50.5,16.1,55.7,9,63.4,4.3s12.4-.8,13.1,6.4v2.1C76.8,13,75.8,16.9,76.1,17ZM21.3,68.4c3.2-.4,6.6-.3,9.7-1.3a16.4,16.4,0,0,0,7.1-4.7c2.8-3.6,2.2-7.8-.3-11.2s-5.5-3-8.6-2.4-5.6,4.8-6.1,9.1S21.9,64.8,21.3,68.4Z" fill="#48c1d6"/><path d="M68.8,15.5a3.6,3.6,0,0,1-3.9,3c-2.1-.4-3.4-1.4-3.2-3.5s2.9-3.4,4.3-3.2S69.2,13.1,68.8,15.5Z" fill="#48c1d6"/></svg>