<svg id="Layer_1" data-name="Layer 1" xmlns="http://www.w3.org/2000/svg" width="1.4in" height="0.9in" viewBox="0 0 97.5 67.2"><title>Artboard 4</title><path d="M79,63.1c-16.2-1-32.4-2.1-48.6-3-5.1-.3-10.1-.1-15.1-.2-3.1,0-5-2.3-5-5.3-.1-8.8-.3-17.6-.8-26.5-.3-5.2-1.1-10.4-1.7-15.6-.3-2,.7-3,2.8-3,4.5.1,9.1.3,13.6,0,12.1-.8,24.1-1.8,36.1-2.7,6.3-.5,12.6-1.3,18.9-1.5a31.4,31.4,0,0,1,8,1.5c.6.2,1.3,1.7,1.3,2.6.6,13,1,26,1.5,39a58.3,58.3,0,0,0,.6,7.2c.6,4.9-1.3,7.2-6.2,7.2H79ZM60.5,28.4c-3.6,3.1-7.2,6.3-11,9.3-2.1,1.7-4.1,2.8-6.8.3s-6.3-4.5-9.2-6.6c-5.1,8.2-9.8,15.9-14.9,24L82,58.1ZM15.5,14C25.9,20.8,36.1,27.4,46,34L76.3,11.9l-.2-1ZM84.7,54.7V12.3l-20.8,14ZM15.5,52.1,30.2,29,13,17.5C13.9,29.2,14.7,40.2,15.5,52.1Z" fill="#48c1d6"/></svg>